<svg xmlns="http://www.w3.org/2000/svg" xmlns:xlink="http://www.w3.org/1999/xlink" width="416" zoomAndPan="magnify" viewBox="0 0 312 123.750003" height="165" preserveAspectRatio="xMidYMid meet" version="1.2"><defs/><g id="8b22f8e549"><g style="fill:#ffffff;fill-opacity:1;"><g transform="translate(21.352175, 83.282687)"><path style="stroke:none" d="M 21.015625 -32.703125 L 21.015625 -25.890625 L 14.859375 -25.890625 L 14.859375 -10.046875 C 14.859375 -8.796875 15.140625 -7.953125 15.703125 -7.515625 C 16.273438 -7.078125 17.015625 -6.859375 17.921875 -6.859375 C 18.347656 -6.859375 18.773438 -6.894531 19.203125 -6.96875 C 19.628906 -7.050781 19.957031 -7.113281 20.1875 -7.15625 L 21.609375 -0.40625 C 21.148438 -0.257812 20.507812 -0.09375 19.6875 0.09375 C 18.863281 0.289062 17.863281 0.410156 16.6875 0.453125 C 13.394531 0.585938 10.75 -0.125 8.75 -1.6875 C 6.757812 -3.257812 5.773438 -5.648438 5.796875 -8.859375 L 5.796875 -25.890625 L 1.3125 -25.890625 L 1.3125 -32.703125 L 5.796875 -32.703125 L 5.796875 -40.53125 L 14.859375 -40.53125 L 14.859375 -32.703125 Z M 21.015625 -32.703125 "/></g></g><g style="fill:#ffffff;fill-opacity:1;"><g transform="translate(44.6421, 83.282687)"><path style="stroke:none" d="M 12.9375 0.625 C 9.820312 0.625 7.234375 -0.191406 5.171875 -1.828125 C 3.117188 -3.460938 2.09375 -5.898438 2.09375 -9.140625 C 2.09375 -11.578125 2.664062 -13.488281 3.8125 -14.875 C 4.957031 -16.269531 6.460938 -17.289062 8.328125 -17.9375 C 10.203125 -18.582031 12.21875 -19.003906 14.375 -19.203125 C 17.207031 -19.484375 19.234375 -19.78125 20.453125 -20.09375 C 21.679688 -20.40625 22.296875 -21.085938 22.296875 -22.140625 L 22.296875 -22.265625 C 22.296875 -23.617188 21.867188 -24.660156 21.015625 -25.390625 C 20.171875 -26.128906 18.976562 -26.5 17.4375 -26.5 C 15.800781 -26.5 14.5 -26.144531 13.53125 -25.4375 C 12.570312 -24.726562 11.9375 -23.828125 11.625 -22.734375 L 3.234375 -23.421875 C 3.859375 -26.398438 5.410156 -28.757812 7.890625 -30.5 C 10.367188 -32.25 13.566406 -33.125 17.484375 -33.125 C 19.910156 -33.125 22.179688 -32.738281 24.296875 -31.96875 C 26.410156 -31.207031 28.113281 -30.015625 29.40625 -28.390625 C 30.707031 -26.765625 31.359375 -24.65625 31.359375 -22.0625 L 31.359375 0 L 22.765625 0 L 22.765625 -4.53125 L 22.5 -4.53125 C 21.707031 -3.007812 20.519531 -1.769531 18.9375 -0.8125 C 17.351562 0.144531 15.351562 0.625 12.9375 0.625 Z M 15.546875 -5.640625 C 17.523438 -5.640625 19.15625 -6.21875 20.4375 -7.375 C 21.71875 -8.53125 22.359375 -9.96875 22.359375 -11.6875 L 22.359375 -15.15625 C 22.003906 -14.914062 21.453125 -14.703125 20.703125 -14.515625 C 19.960938 -14.335938 19.164062 -14.179688 18.3125 -14.046875 C 17.46875 -13.910156 16.710938 -13.789062 16.046875 -13.6875 C 14.460938 -13.457031 13.179688 -13.007812 12.203125 -12.34375 C 11.234375 -11.675781 10.75 -10.707031 10.75 -9.4375 C 10.75 -8.1875 11.195312 -7.238281 12.09375 -6.59375 C 13 -5.957031 14.148438 -5.640625 15.546875 -5.640625 Z M 15.546875 -5.640625 "/></g></g><g style="fill:#ffffff;fill-opacity:1;"><g transform="translate(79.427965, 83.282687)"><path style="stroke:none" d="M 3.625 12.265625 L 3.625 -32.703125 L 12.5625 -32.703125 L 12.5625 -27.203125 L 12.96875 -27.203125 C 13.375 -28.097656 13.953125 -29 14.703125 -29.90625 C 15.460938 -30.820312 16.457031 -31.585938 17.6875 -32.203125 C 18.925781 -32.816406 20.453125 -33.125 22.265625 -33.125 C 24.671875 -33.125 26.875 -32.503906 28.875 -31.265625 C 30.875 -30.023438 32.476562 -28.15625 33.6875 -25.65625 C 34.90625 -23.164062 35.515625 -20.050781 35.515625 -16.3125 C 35.515625 -12.664062 34.925781 -9.585938 33.75 -7.078125 C 32.570312 -4.578125 30.976562 -2.679688 28.96875 -1.390625 C 26.96875 -0.109375 24.726562 0.53125 22.25 0.53125 C 20.488281 0.53125 18.992188 0.238281 17.765625 -0.34375 C 16.535156 -0.925781 15.535156 -1.660156 14.765625 -2.546875 C 13.992188 -3.429688 13.394531 -4.328125 12.96875 -5.234375 L 12.6875 -5.234375 L 12.6875 12.265625 Z M 12.5 -16.34375 C 12.5 -13.4375 13.097656 -11.097656 14.296875 -9.328125 C 15.492188 -7.566406 17.1875 -6.6875 19.375 -6.6875 C 21.601562 -6.6875 23.304688 -7.582031 24.484375 -9.375 C 25.660156 -11.175781 26.25 -13.5 26.25 -16.34375 C 26.25 -19.1875 25.660156 -21.488281 24.484375 -23.25 C 23.316406 -25.019531 21.613281 -25.90625 19.375 -25.90625 C 17.175781 -25.90625 15.476562 -25.039062 14.28125 -23.3125 C 13.09375 -21.59375 12.5 -19.269531 12.5 -16.34375 Z M 12.5 -16.34375 "/></g></g><g style="fill:#ffffff;fill-opacity:1;"><g transform="translate(105.395275, 84.406392)"><path style="stroke:none" d="M 2.3125 -39 L 2.3125 -47.234375 L 41.09375 -47.234375 L 41.09375 -39 L 26.640625 -39 L 26.640625 0 L 16.765625 0 L 16.765625 -39 Z M 2.3125 -39 "/></g></g><g style="fill:#ffffff;fill-opacity:1;"><g transform="translate(148.790373, 84.406392)"><path style="stroke:none" d="M 13.75 -20.484375 L 13.75 0 L 3.921875 0 L 3.921875 -47.234375 L 13.46875 -47.234375 L 13.46875 -29.171875 L 13.875 -29.171875 C 14.695312 -31.265625 15.992188 -32.90625 17.765625 -34.09375 C 19.546875 -35.28125 21.78125 -35.875 24.46875 -35.875 C 28.15625 -35.875 31.117188 -34.691406 33.359375 -32.328125 C 35.609375 -29.960938 36.726562 -26.703125 36.71875 -22.546875 L 36.71875 0 L 26.890625 0 L 26.890625 -20.796875 C 26.898438 -22.984375 26.347656 -24.679688 25.234375 -25.890625 C 24.117188 -27.109375 22.5625 -27.71875 20.5625 -27.71875 C 18.570312 -27.71875 16.941406 -27.082031 15.671875 -25.8125 C 14.398438 -24.539062 13.757812 -22.765625 13.75 -20.484375 Z M 13.75 -20.484375 "/></g></g><g style="fill:#ffffff;fill-opacity:1;"><g transform="translate(189.326276, 84.406392)"><path style="stroke:none" d="M 3.921875 0 L 3.921875 -35.421875 L 13.75 -35.421875 L 13.75 0 Z M 8.859375 -39.984375 C 7.410156 -39.984375 6.164062 -40.472656 5.125 -41.453125 C 4.082031 -42.429688 3.5625 -43.601562 3.5625 -44.96875 C 3.5625 -46.332031 4.082031 -47.5 5.125 -48.46875 C 6.164062 -49.4375 7.410156 -49.921875 8.859375 -49.921875 C 10.316406 -49.921875 11.566406 -49.4375 12.609375 -48.46875 C 13.660156 -47.5 14.1875 -46.332031 14.1875 -44.96875 C 14.1875 -43.601562 13.660156 -42.429688 12.609375 -41.453125 C 11.566406 -40.472656 10.316406 -39.984375 8.859375 -39.984375 Z M 8.859375 -39.984375 "/></g></g><g style="fill:#ffffff;fill-opacity:1;"><g transform="translate(206.988676, 84.406392)"><path style="stroke:none" d="M 13.75 -20.484375 L 13.75 0 L 3.921875 0 L 3.921875 -35.421875 L 13.28125 -35.421875 L 13.28125 -29.171875 L 13.703125 -29.171875 C 14.492188 -31.234375 15.804688 -32.863281 17.640625 -34.0625 C 19.484375 -35.269531 21.71875 -35.875 24.34375 -35.875 C 28.039062 -35.875 31.003906 -34.6875 33.234375 -32.3125 C 35.460938 -29.9375 36.578125 -26.679688 36.578125 -22.546875 L 36.578125 0 L 26.75 0 L 26.75 -20.796875 C 26.757812 -22.960938 26.203125 -24.65625 25.078125 -25.875 C 23.960938 -27.101562 22.421875 -27.71875 20.453125 -27.71875 C 18.472656 -27.71875 16.863281 -27.082031 15.625 -25.8125 C 14.382812 -24.539062 13.757812 -22.765625 13.75 -20.484375 Z M 13.75 -20.484375 "/></g></g><g style="fill:#ffffff;fill-opacity:1;"><g transform="translate(247.363177, 84.406392)"><path style="stroke:none" d="M 19.875 13.796875 C 15.113281 13.796875 11.367188 12.851562 8.640625 10.96875 C 5.921875 9.09375 4.269531 6.820312 3.6875 4.15625 L 12.78125 2.921875 C 13.175781 3.878906 13.953125 4.753906 15.109375 5.546875 C 16.273438 6.335938 17.941406 6.734375 20.109375 6.734375 C 22.242188 6.734375 24.003906 6.222656 25.390625 5.203125 C 26.785156 4.191406 27.484375 2.523438 27.484375 0.203125 L 27.484375 -6.265625 L 27.078125 -6.265625 C 26.429688 -4.804688 25.289062 -3.476562 23.65625 -2.28125 C 22.03125 -1.09375 19.800781 -0.5 16.96875 -0.5 C 14.3125 -0.5 11.894531 -1.125 9.71875 -2.375 C 7.539062 -3.625 5.8125 -5.523438 4.53125 -8.078125 C 3.25 -10.628906 2.609375 -13.863281 2.609375 -17.78125 C 2.609375 -21.8125 3.265625 -25.160156 4.578125 -27.828125 C 5.890625 -30.503906 7.632812 -32.515625 9.8125 -33.859375 C 11.988281 -35.203125 14.367188 -35.875 16.953125 -35.875 C 18.929688 -35.875 20.585938 -35.539062 21.921875 -34.875 C 23.265625 -34.207031 24.347656 -33.378906 25.171875 -32.390625 C 26.003906 -31.410156 26.640625 -30.4375 27.078125 -29.46875 L 27.4375 -29.46875 L 27.4375 -35.421875 L 37.203125 -35.421875 L 37.203125 0.34375 C 37.203125 3.28125 36.457031 5.75 34.96875 7.75 C 33.488281 9.75 31.445312 11.253906 28.84375 12.265625 C 26.25 13.285156 23.257812 13.796875 19.875 13.796875 Z M 20.078125 -7.890625 C 22.453125 -7.890625 24.285156 -8.765625 25.578125 -10.515625 C 26.878906 -12.265625 27.53125 -14.703125 27.53125 -17.828125 C 27.53125 -20.929688 26.882812 -23.410156 25.59375 -25.265625 C 24.300781 -27.128906 22.460938 -28.0625 20.078125 -28.0625 C 17.648438 -28.0625 15.800781 -27.109375 14.53125 -25.203125 C 13.269531 -23.296875 12.640625 -20.835938 12.640625 -17.828125 C 12.640625 -14.765625 13.273438 -12.34375 14.546875 -10.5625 C 15.828125 -8.78125 17.671875 -7.890625 20.078125 -7.890625 Z M 20.078125 -7.890625 "/></g></g></g></svg>